<svg version="1.2" xmlns="http://www.w3.org/2000/svg" viewBox="0 0 720 720" width="720" height="720">
	<title>my-pc-svg</title>
	<style>
		.s0 { fill: #325e64 } 
		.s1 { fill: #325e64;stroke: #325e64;stroke-width: .6 } 
	</style>
	<g id="Layer_1">
		<path id="Layer" fill-rule="evenodd" class="s0" d="m415.3 353.9c6.6 6.4 13.3 13 19.9 19.6 6.6 6.6 6.6 12 0.1 18.6q-9.3 9.5-18.8 18.7c-6.3 6.2-11.6 6.2-17.9 0-6.7-6.7-13.3-13.5-20.6-21-5.8 6-11.1 11.4-16.2 16.9-3.5 3.7-7.5 6-12.7 4.4-5.1-1.5-6.8-5.7-7.8-10.4q-10.4-45.2-20.9-90.4c-2.4-10.9 3.5-17 14.2-14.5q45.8 10.5 91.5 21.1c11.3 2.7 13.6 11.6 5.5 19.9-5.2 5.3-10.5 10.5-15.7 15.8q-0.1 0.1-0.1 0.3-0.1 0.1-0.2 0.3-0.1 0.2-0.1 0.3-0.1 0.2-0.2 0.4zm-0.5 28.6c-6.9-6.8-13.5-13.3-20.1-19.9-6.7-6.7-6.7-11.8 0-18.7 3.3-3.3 6.6-6.6 10.4-10.5l-60.9-13.9 14.2 61.2c3.6-3.8 6.3-6.7 9.2-9.6 8.1-8.2 12.8-8.2 20.9-0.1 6.2 6.3 12.3 12.7 18.8 19.5z"/>
		<path id="Layer" class="s0" d="m343.2 256.6c0 2.5 0.1 5 0 7.4-0.5 5.7-4.5 9.7-9.8 10-5.3 0.4-10.2-3.1-10.8-8.7q-0.2-2.3-0.3-4.5-0.2-2.3-0.2-4.5 0-2.2 0.2-4.5 0.1-2.2 0.3-4.5c0.6-5.6 5.4-8.9 10.8-8.6 5.3 0.3 9.3 4.3 9.7 10 0.2 2.6 0.1 5.3 0.1 7.9z"/>
		<path id="Layer" class="s0" d="m353.5 276.8c0.4-1.5 0.3-3.5 1.3-4.5 4.9-5.2 9.6-10.8 15.2-15.2 3.9-3.1 8.5-1.3 11.9 2 3.3 3.2 4.1 9 1.1 12.6q-1.6 1.8-3.2 3.6-1.6 1.7-3.3 3.4-1.6 1.7-3.4 3.3-1.7 1.6-3.5 3.2-1 0.9-2.3 1.5-1.3 0.5-2.8 0.6-1.4 0.1-2.7-0.3-1.4-0.5-2.5-1.3c-2.7-2.1-4.5-5.2-6.7-8z"/>
		<path id="Layer" class="s0" d="m281.4 318.5c-3.2-0.1-6.4-0.1-9.5-0.5q-1.8-0.3-3.4-1.2-1.5-0.9-2.7-2.2-1.2-1.4-1.8-3.1-0.7-1.7-0.7-3.5c0-4.6 3.2-9.4 7.9-9.9q2.4-0.2 4.9-0.3 2.5-0.1 5-0.1 2.5 0 5 0.1 2.5 0.1 5 0.3c5 0.5 8 5.4 7.7 10.5q-0.1 1.7-0.7 3.3-0.7 1.6-1.8 2.9-1.2 1.3-2.7 2.1-1.6 0.8-3.3 1.1c-2.9 0.4-5.9 0.4-8.9 0.5z"/>
		<path id="Layer" class="s0" d="m311.7 339.8c-0.2 0.8-0.1 2.8-1 3.8-4.9 5.2-9.6 10.7-15.2 15.1-3.9 3-8.6 1.5-12-2-3.3-3.5-4.3-8.3-1.3-12.1 4.1-5.2 8.8-10.2 14.1-14.1 6.5-4.7 15.3 0.5 15.4 9.3z"/>
		<path id="Layer" class="s0" d="m311.7 276.3c0.1 8.2-8.6 13.8-15.1 9.2-5.5-3.9-10.2-9.2-14.5-14.4q-1-1.2-1.5-2.7-0.4-1.5-0.3-3.1 0.2-1.5 0.9-2.9 0.7-1.4 1.9-2.4c2.6-2.2 7.4-4.5 10.1-3.5 8.2 2.8 13.4 9.8 18.1 16.9 0.5 0.8 0.3 2.1 0.4 2.9z"/>
	</g>
	<g id="Layer_2">
		<path id="Layer" class="s1" d="m608 187.6v314.7c0 3.3-0.7 6.7-2 9.8-1.2 3.1-3.1 5.9-5.5 8.3-2.4 2.4-5.2 4.3-8.3 5.5-3.1 1.3-6.5 2-9.8 2h-445.8c-3.3 0-6.7-0.7-9.8-2-3.1-1.3-5.9-3.1-8.3-5.5-2.4-2.4-4.3-5.2-5.5-8.3-1.3-3.1-2-6.5-2-9.8v-314.7c0-3.3 0.7-6.7 2-9.8 1.2-3.1 3.1-5.9 5.5-8.3 2.4-2.4 5.2-4.2 8.3-5.5 3.1-1.3 6.5-2 9.8-2h39.6v14.9h-39.6c-1.4 0-2.8 0.3-4.1 0.9-1.3 0.5-2.4 1.3-3.4 2.3-1 1-1.8 2.1-2.3 3.4-0.6 1.3-0.9 2.7-0.9 4.1v314.7c0 1.4 0.3 2.8 0.9 4.1 0.5 1.3 1.3 2.4 2.3 3.4 1 1 2.1 1.8 3.4 2.3 1.3 0.6 2.7 0.9 4.1 0.9h445.8c1.4 0 2.8-0.3 4.1-0.9 1.3-0.5 2.4-1.3 3.4-2.3 1-1 1.8-2.1 2.3-3.4 0.6-1.3 0.9-2.7 0.9-4.1v-314.7c0-1.4-0.3-2.8-0.9-4.1-0.5-1.3-1.3-2.4-2.3-3.4-1-1-2.1-1.8-3.4-2.3-1.3-0.6-2.7-0.9-4.1-0.9h-52l0.1-14.9h51.9c3.3 0 6.7 0.7 9.8 2 3.1 1.2 5.9 3.1 8.3 5.5 2.4 2.4 4.3 5.2 5.5 8.3 1.3 3.1 2 6.5 2 9.8z"/>
		<path id="Layer" fill-rule="evenodd" class="s1" d=""/>
		<path id="Layer" class="s1" d="m582 202.2v249.7h-445v-249.7l36 0.2v14.9l-21.1-0.2v219.8h36.6v3.1h357.2v-3.1h21.4v-219.8h-36.7v-14.9h51.6z"/>
		<path id="Layer" fill-rule="evenodd" class="s1" d="m279.2 602.6c-1.3 0-2.7-0.4-3.8-1.1-1.2-0.7-2.2-1.7-2.8-2.9-0.6-1.3-0.9-2.6-0.8-4 0.1-1.3 0.5-2.7 1.3-3.8l2.6-3.7c14.4-20.5 20.8-43.3 18.5-65.9-0.1-1.1 0-2.1 0.3-3.1 0.4-1 0.9-1.9 1.6-2.7 0.7-0.8 1.6-1.4 2.5-1.8 1-0.4 2-0.6 3.1-0.6h115.7c1 0 2.1 0.2 3 0.6 1 0.4 1.8 1 2.5 1.8 0.7 0.8 1.3 1.7 1.6 2.7 0.3 1 0.4 2 0.3 3.1-2.2 22.6 4.2 45.4 18.5 65.9l2.6 3.7c0.8 1.1 1.3 2.5 1.4 3.8 0.1 1.4-0.2 2.7-0.9 4-0.6 1.2-1.6 2.2-2.7 2.9-1.2 0.7-2.5 1.1-3.9 1.1zm30.3-74.7c0.5 20.5-5.1 40.9-16.4 59.7h132.7c-11.2-18.8-16.8-39.2-16.4-59.7z"/>
		<path id="Layer" fill-rule="evenodd" class="s1" d="m459.2 636.2h-199.4c-6.4 0-12.6-2.6-17.2-7.1-4.5-4.6-7.1-10.8-7.1-17.2 0-6.4 2.6-12.6 7.1-17.2 4.6-4.5 10.8-7.1 17.2-7.1h199.4c6.4 0 12.6 2.6 17.1 7.1 4.6 4.6 7.2 10.8 7.2 17.2 0 6.4-2.6 12.6-7.2 17.2-4.5 4.5-10.7 7.1-17.1 7.1zm-199.4-33.6c-2.5 0-4.8 1-6.6 2.7-1.7 1.8-2.7 4.1-2.7 6.6 0 2.5 1 4.9 2.7 6.6 1.8 1.8 4.1 2.7 6.6 2.7h199.4c2.5 0 4.8-0.9 6.6-2.7 1.7-1.7 2.7-4.1 2.7-6.6 0-2.5-1-4.8-2.7-6.6-1.8-1.7-4.1-2.7-6.6-2.7z"/>
		<path id="Layer" class="s1" d="m173 202.3h357.4v14.9h-357.4z"/>
		<path id="Layer" class="s1" d="m176.2 176.9v-14.9h354.3l-0.1 14.9h-354.2z"/>
	</g>
</svg>